<svg xmlns="http://www.w3.org/2000/svg" viewBox="0 0 1024 1024"><path fill="#fff" d="M839.68 560.853H621.867c0-34.858-18.902-67.029-49.494-84.48a100.31 100.31 0 0 0-98.986 0 97.24 97.24 0 0 0-49.536 84.48H314.539v-.256a29.31 29.31 0 0 1-27.179-29.013c0-2.432.384-4.821.981-7.168 14.464-90.667 81.408-164.65 171.264-189.141a239.62 239.62 0 0 1 245.59 75.52l.256.341c1.194 1.408 2.474 2.773 3.797 4.267 36.608 39.168 98.304 42.24 138.837 7.04a96.81 96.81 0 0 0 9.942-136.576l.256-.214C726.784 127.02 499.712 82.133 316.16 178.347c-183.552 96.426-272.341 307.029-212.053 503.04a96 96 0 0 0 4.992 15.189c0 .299.17.597.298.896a98.6 98.6 0 0 0 57.643 52.907 121 121 0 0 1-.597-11.947c0-69.973 57.6-126.72 128.725-126.72 71.04 0 128.683 56.747 128.683 126.72v17.408c0 53.845 44.33 97.493 98.986 97.493 54.699 0 98.987-43.648 98.987-97.493v-13.739c0-1.621-.213-3.2-.213-4.821 0-69.547 57.258-125.91 127.872-125.91 70.57 0 127.829 56.363 127.829 125.867 0 3.755-.213 7.723-.555 11.478A97.24 97.24 0 0 0 936.832 639.7a98.6 98.6 0 0 0-97.152-78.933z"/><path fill="#fff" d="M759.467 830.507c-36.779 0-70.571-20.054-87.638-52.182a96.21 96.21 0 0 1 6.23-100.693 100.27 100.27 0 0 0-18.048 117.675c20.48 38.912 64 60.501 107.946 53.461a102.14 102.14 0 0 0 85.206-84.395 98.86 98.86 0 0 1-93.654 66.134z"/><path fill="#fff" d="M759.552 651.093c45.91 0 83.2 36.694 83.2 81.92s-37.29 81.92-83.2 81.92c-45.952 0-83.2-36.693-83.2-81.92s37.248-81.92 83.2-81.92M306.048 651.093c45.91 0 83.2 36.694 83.2 81.92s-37.29 81.92-83.2 81.92c-45.952 0-83.2-36.693-83.2-81.92 0-21.76 8.747-42.581 24.32-57.941 15.659-15.36 36.821-23.979 58.88-23.979"/><path fill="#fff" d="M306.048 830.507a99.2 99.2 0 0 1-87.68-52.182 96.26 96.26 0 0 1 6.187-100.693 100.27 100.27 0 0 0-17.92 117.76 103.42 103.42 0 0 0 108.032 53.333 102.19 102.19 0 0 0 85.12-84.48 98.94 98.94 0 0 1-93.739 66.262"/></svg>